<?xml version="1.0" standalone="no"?>
<!DOCTYPE svg PUBLIC "-//W3C//DTD SVG 1.1//EN" "http://www.w3.org/Graphics/SVG/1.1/DTD/svg11.dtd">
<svg width="450" height="550" version="1.1" xmlns="http://www.w3.org/2000/svg" xmlns:xlink="http://www.w3.org/1999/xlink">
<defs>
<filter color-interpolation-filters='sRGB' id='filter3001'>
<feTurbulence type='fractalNoise' baseFrequency='100 .85' numOctaves='1'/>
</filter>
</defs>
<rect height='200%' width='200%' style='filter:url(#filter3001)' />
<rect height='200%' width='200%' style='fill:#c4c452;fill-opacity:0.25;'/>
<rect x="25" y="225" width="95" height="95" rx="5" ry="5"> <title>It is pitch black. You are likely to be eaten by a grue.  Exits: east, south, and north. </title> </rect><rect x="112" y="262" width="20" height="20" /><rect x="62" y="312" width="20" height="20" /><rect x="62" y="217" width="20" height="20" />
<rect x="25" y="125" width="95" height="95" rx="5" ry="5"> <title>You are in an immense vault with a pentagram drawn in chalk on the floor..  Exits: north, west, and south. </title> </rect><rect x="62" y="117" width="20" height="20" /><rect x="15" y="162" width="20" height="20" /><rect x="62" y="212" width="20" height="20" />
<rect x="25" y="25" width="95" height="95" rx="5" ry="5"> <title>You are in a dirty room with a large chalk circle on the floor.. Contents: a ball made of plastic and metal skeleton key.  Exits: west, east, and south. </title> </rect><rect x="15" y="62" width="20" height="20" /><rect x="112" y="62" width="20" height="20" /><rect x="62" y="112" width="20" height="20" />
<rect x="125" y="25" width="95" height="95" rx="5" ry="5"> <title>It is pitch black and you can't see a thing. What if there is a grue?</title> </rect><rect x="115" y="62" width="20" height="20" /><rect x="162" y="112" width="20" height="20" /><rect x="212" y="62" width="20" height="20" />
<rect x="225" y="25" width="95" height="95" rx="5" ry="5"> <title>You are in a home office with crumbling walls.. You notice bell hooks trying and failing to rap..  Exits: east, south, north, and west. </title> </rect><rect x="312" y="62" width="20" height="20" /><rect x="262" y="112" width="20" height="20" /><rect x="262" y="17" width="20" height="20" /><rect x="215" y="62" width="20" height="20" />
<rect x="225" y="125" width="95" height="95" rx="5" ry="5"> <title>You are in a dark vault with a portrait of Gizmobob on the wall.. Contents: golden bowling ball.  Exits: west, east, south, and north. </title> </rect><rect x="215" y="162" width="20" height="20" /><rect x="312" y="162" width="20" height="20" /><rect x="262" y="212" width="20" height="20" /><rect x="262" y="117" width="20" height="20" />
<rect x="225" y="225" width="95" height="95" rx="5" ry="5"> <title>You are in an immense storeroom with a hospital bed.. You notice James Bond reading a fragile parchment about the history of the book.. Contents: Zaxxon.  Exits: south and north. </title> </rect><rect x="262" y="312" width="20" height="20" /><rect x="262" y="217" width="20" height="20" />
<rect x="225" y="325" width="95" height="95" rx="5" ry="5"> <title>You are in a smelly auditorium with a massive church organ against one wall..  Exits: east and north. </title> </rect><rect x="312" y="362" width="20" height="20" /><rect x="262" y="317" width="20" height="20" />
<rect x="125" y="125" width="95" height="95" rx="5" ry="5"> <title>You are in a ridiculously small bathroom that smells like your great-aunt's famous dish, someone else's face..  Exits: east, south, and north. </title> </rect><rect x="212" y="162" width="20" height="20" /><rect x="162" y="212" width="20" height="20" /><rect x="162" y="117" width="20" height="20" />
<rect x="125" y="225" width="95" height="95" rx="5" ry="5"> <title>You are in an abandoned laboratory dominated by a large statue of Draconem.. Contents: origami throwing knife.  Exits: east, south, and north. </title> </rect><rect x="212" y="262" width="20" height="20" /><rect x="162" y="312" width="20" height="20" /><rect x="162" y="217" width="20" height="20" />
<rect x="125" y="325" width="95" height="95" rx="5" ry="5"> <title>It is pitch black and you can't see a thing. What if there is a grue?</title> </rect><rect x="212" y="362" width="20" height="20" /><rect x="115" y="362" width="20" height="20" /><rect x="162" y="317" width="20" height="20" />
<rect x="25" y="325" stroke="red" stroke-width="3" width="95" height="95" rx="5" ry="5"> <title>You are in a lair with a jewelry box on the floor..  Exits: west and east. </title> </rect><rect x="15" y="362" width="20" height="20" /><rect x="112" y="362" width="20" height="20" />
</svg>
